<?xml version="1.0" standalone="no"?>
<!DOCTYPE svg PUBLIC "-//W3C//DTD SVG 20010904//EN"
 "http://www.w3.org/TR/2001/REC-SVG-20010904/DTD/svg10.dtd">
<svg version="1.0" xmlns="http://www.w3.org/2000/svg"
 width="222.000000pt" height="222.000000pt" viewBox="0 0 222.000000 222.000000"
 preserveAspectRatio="xMidYMid meet">
<metadata>
Created by potrace 1.11, written by Peter Selinger 2001-2013
</metadata>
<g transform="translate(0.000000,222.000000) scale(0.100000,-0.100000)"
fill="#000000" stroke="none">
<path d="M915 2205 c-143 -29 -241 -80 -330 -170 -94 -96 -149 -210 -184 -383
-12 -60 -25 -180 -22 -209 2 -16 421 -16 422 0 16 236 60 331 178 384 25 12
66 17 136 17 84 1 106 -2 140 -21 86 -46 138 -123 155 -229 16 -100 -1 -191
-56 -284 -63 -107 -101 -141 -524 -454 -107 -80 -260 -228 -307 -298 -26 -38
-95 -170 -98 -188 -1 -3 -13 -43 -28 -90 -27 -88 -34 -125 -41 -222 l-5 -58
759 0 758 0 0 190 c1 188 0 190 -21 191 -12 0 -228 1 -480 1 -252 1 -456 5
-455 10 7 21 77 97 122 134 28 22 132 98 231 169 358 255 446 338 528 500 68
136 90 334 54 495 -51 225 -218 410 -437 484 -130 43 -365 58 -495 31z"/>
</g>
</svg>
